<?xml version="1.0" encoding="utf-8"?>
<!-- Generator: Adobe Illustrator 24.3.0, SVG Export Plug-In . SVG Version: 6.00 Build 0)  -->
<svg version="1.1" id="Layer_1" xmlns="http://www.w3.org/2000/svg" xmlns:xlink="http://www.w3.org/1999/xlink" x="0px" y="0px"
	 viewBox="0 0 350.57 357.69" style="enable-background:new 0 0 350.57 357.69;" xml:space="preserve">
<style type="text/css">
	.st0{fill:none;}
	.st1{fill:#514C48;}
	.st2{fill:#CCCCCC;}
	.st3{fill:#EAEAEA;}
	.st4{fill:#FF7070;}
</style>
<path class="st0" d="M155.9,15.91"/>
<g>
	<path d="M102.54,198.44l2.98-15.87c1.02-5.29,2.04-10.57,3.16-15.84c0.92-5.34,3.09-10.35,5-15.36c1.97-5.01,3.98-10,6.03-14.98
		c-1.97,5.01-3.91,10.03-5.8,15.07c-1.83,5.06-3.9,10.04-4.74,15.37c-1.04,5.28-1.98,10.58-2.91,15.88l-2.73,15.91L102.54,198.44z"
		/>
</g>
<g>
	<path d="M212.21,99.25l11.39,0.34c3.79,0.09,7.59,0.18,11.38,0.15c0.94-0.01,1.9-0.02,2.8-0.1c0.91-0.1,1.84-0.27,2.77-0.46
		c1.86-0.37,3.71-0.78,5.56-1.21c3.7-0.85,7.39-1.75,11.08-2.68c-3.64,1.1-7.28,2.18-10.94,3.21c-1.83,0.51-3.66,1.02-5.52,1.48
		c-0.93,0.23-1.86,0.45-2.83,0.6c-0.98,0.13-1.93,0.19-2.88,0.24c-3.81,0.22-7.61,0.31-11.42,0.4l-11.41,0.2L212.21,99.25z"/>
</g>
<g>
	<path d="M106.54,211.66c-4.3-2.48-8.7-4.84-13.24-6.85c-1.14-0.49-2.29-0.97-3.45-1.37c-1.16-0.4-2.38-0.78-3.54-1.21
		c-2.35-0.85-4.69-1.73-7.02-2.62c-4.66-1.79-9.3-3.63-13.92-5.51l-6.92-2.86L55,189.75l-1.7-0.78c-0.55-0.29-1.16-0.5-1.62-0.92
		c0.46,0.41,1.08,0.61,1.63,0.89l1.71,0.75l3.46,1.43l6.96,2.75c4.65,1.8,9.32,3.56,14.01,5.27c2.34,0.85,4.69,1.7,7.05,2.5
		c1.18,0.41,2.35,0.76,3.56,1.15c1.2,0.39,2.37,0.85,3.53,1.33c4.62,1.95,9.07,4.24,13.45,6.67L106.54,211.66z"/>
</g>
<g>
	<path d="M200.8,235.24c4.05-2.28,8.16-4.43,12.35-6.45c4.19-1.98,8.43-3.93,12.93-5.2c1.13-0.3,2.28-0.55,3.47-0.6
		c0.29-0.03,0.6,0.01,0.9,0.02c0.28,0,0.55,0.05,0.83,0.01c0.56-0.01,1.09-0.2,1.62-0.39c2.08-0.93,3.67-2.71,5.17-4.44
		c1.5-1.76,2.89-3.62,4.45-5.34c0.79-0.85,1.61-1.68,2.56-2.35c0.47-0.34,0.99-0.62,1.53-0.83c0.55-0.19,1.13-0.29,1.71-0.27
		c-0.58-0.02-1.15,0.1-1.7,0.3c-0.53,0.22-1.04,0.51-1.5,0.85c-0.94,0.68-1.74,1.52-2.51,2.38c-1.53,1.74-2.88,3.62-4.35,5.41
		c-1.48,1.77-3.04,3.6-5.21,4.63c-0.55,0.22-1.13,0.43-1.74,0.45c-0.3,0.05-0.61,0-0.9,0c-0.28,0-0.55-0.04-0.84-0.01
		c-1.13,0.07-2.25,0.34-3.35,0.65c-4.41,1.33-8.6,3.34-12.73,5.39c-4.13,2.08-8.19,4.31-12.17,6.64L200.8,235.24z"/>
</g>
<g>
	<path d="M231.95,85.76c-0.15-1.01,0.26-1.86,0.56-2.73c0.31-0.87,0.65-1.73,0.99-2.59c0.7-1.71,1.44-3.42,2.34-5.05
		c0.47-0.81,0.95-1.61,1.54-2.35c0.58-0.74,1.17-1.4,1.69-2.16c0.53-0.74,1.02-1.5,1.45-2.31c0.46-0.79,0.73-1.69,1.29-2.43
		c-0.26,0.38-0.38,0.83-0.54,1.26c-0.16,0.43-0.32,0.87-0.5,1.29c-0.36,0.85-0.78,1.68-1.27,2.48c-0.47,0.79-1.06,1.55-1.56,2.29
		c-0.51,0.73-0.92,1.54-1.32,2.35c-0.79,1.63-1.47,3.32-2.08,5.04c-0.3,0.86-0.6,1.72-0.87,2.59c-0.29,0.87-0.45,1.77-1.13,2.51
		L231.95,85.76z"/>
</g>
<g>
	<path class="st1" d="M143.46,151.43c-6.49,8.35-12.89,16.75-19.56,24.96c-6.65,8.22-13.56,16.25-20.75,24.02
		c-1.78,1.96-3.63,3.85-5.47,5.75L94.91,209l-2.83,2.78l-2.84,2.77l-2.92,2.69c-1.95,1.79-3.89,3.59-5.92,5.3
		c-7.98,6.96-16.45,13.37-25.43,18.95c8.66-6.07,16.82-12.78,24.61-19.87c1.98-1.74,3.86-3.59,5.75-5.42l2.84-2.75l2.77-2.82
		l2.78-2.81l2.72-2.87c1.81-1.91,3.62-3.83,5.38-5.79c7.13-7.77,13.93-15.84,20.75-23.89C129.38,167.21,136.19,159.11,143.46,151.43
		z"/>
</g>
<g>
	<path d="M212.94,220.85c0.84-4.52,1.75-9.03,2.74-13.51c1.03-4.48,2.06-8.96,3.51-13.34c0.36-1.09,0.76-2.18,1.25-3.24
		c0.48-1.07,1.14-2.03,1.79-2.97c1.33-1.88,2.79-3.66,4.19-5.47c1.4-1.81,2.78-3.65,3.9-5.65c0.57-0.99,1.03-2.05,1.37-3.14
		c0.31-1.1,0.41-2.26,0.22-3.4c0.21,1.13,0.13,2.3-0.16,3.41c-0.32,1.1-0.76,2.17-1.32,3.18c-1.09,2.03-2.44,3.9-3.81,5.74
		c-2.7,3.69-5.86,7.18-6.96,11.68c-1.36,4.37-2.31,8.86-3.25,13.35c-0.91,4.49-1.74,9.01-2.49,13.53L212.94,220.85z"/>
</g>
<g>
	<path class="st1" d="M251.63,170.58c-3.7-1.5-7.4-2.96-11.16-4.29c-3.76-1.31-7.54-2.54-11.35-3.65c-1.91-0.55-3.83-1.06-5.75-1.53
		l-5.83-1.38c-3.93-0.99-7.7-2.51-11.34-4.24c-3.65-1.73-7.13-3.79-10.49-5.99c-3.36-2.21-6.62-4.54-9.79-6.97
		c-3.19-2.4-6.28-4.91-9.48-7.19c-1.61-1.13-3.25-2.22-5.01-3.02c-0.87-0.44-1.8-0.7-2.75-0.91c-0.95-0.14-1.94-0.13-2.91,0.13
		c0.9-0.44,1.92-0.67,2.96-0.66c1.03,0.05,2.06,0.23,3.03,0.56c1.96,0.63,3.78,1.57,5.52,2.61c1.74,1.03,3.41,2.15,5.05,3.31
		c1.64,1.14,3.25,2.33,4.85,3.52c6.38,4.75,12.83,9.36,19.89,12.88c3.52,1.76,7.17,3.24,10.94,4.37l5.76,1.57
		c1.93,0.54,3.85,1.12,5.75,1.74c3.81,1.22,7.56,2.62,11.25,4.17C244.43,167.13,248.07,168.78,251.63,170.58z"/>
</g>
<g>
	<path class="st1" d="M282.15,188.93c-2.09-1.79-4.36-3.43-6.65-4.99c-1.15-0.77-2.32-1.54-3.51-2.25c-1.19-0.72-2.43-1.35-3.66-2
		c-2.49-1.25-4.88-2.65-7.25-4.11c-2.36-1.48-4.83-2.78-7.32-4.02c2.53,1.16,5.08,2.29,7.65,3.39c2.58,1.09,5.07,2.36,7.44,3.84
		c1.19,0.73,2.37,1.48,3.57,2.18l3.64,2.07l7.34,4.14L282.15,188.93z"/>
</g>
<path class="st2" d="M221.11,204.14l-31.42,35.91c0,0-10.47,16.46-14.21,14.96c-3.74-1.5-2.99-7.48-2.99-7.48s0-52.36-1.5-58.35
	c-1.5-5.98,0.75-13.46-0.75-19.45c-1.5-5.98-2.62-14.78-2.62-14.78s-1.12-1.48,0-6.44s11.59-15.43,11.59-15.43
	s29.17-28.43,35.16-30.67c5.98-2.24,6.73-6.73,9.72-7.48c2.99-0.75,20.95-18.7,20.95-18.7s-17.2,9.72-20.2,11.97
	c-2.99,2.24-8.23,3.74-14.21,7.48s-15.71,14.21-15.71,14.21s-11.22,8.23-13.46,9.72s-13.46,13.37-15.71,11.92
	c-2.24-1.45-2.99-10.42-2.99-10.42l-6.73-58.35L150.46,30h-5l-2,81.85v51.01v43.32l0.78,18c0,0,2.06,39.06-1.68,42.8
	c-3.74,3.74-15.33-27.3-20.95-36.65c-3.88-6.47-12.14-22.4-15.33-29.55c-0.91-2.04-0.75-6.73-2.99-7.48
	c-4.37-1.46-8.86-8.73-11.22-13.46c-2.99-5.98-19.46-29.19-20.57-30.3c-1.12-1.12,29.92,56.85,29.92,56.85l33.66,68.82l5.98,16.46
	l1.5,30.67l-1.08,32.58c5.69,0.49,11.44,0.75,17.25,0.75c5.89,0,11.72-0.27,17.49-0.78l-2.99-45.28l-2.24-25.43
	c0,0,0.24-2.55,1.22-6.14c1.45-5.31,4.5-12.89,10.75-17.8c10.47-8.23,17.2-20.95,17.2-20.95s31.42-36.65,33.66-36.65
	s26.18-41.89,26.18-41.89s-14.96,17.21-20.2,24.69C234.58,192.92,221.11,204.14,221.11,204.14z"/>
<path class="st3" d="M270.15,120.55c0-4.36,2.11-14.8-2.11-11.63c-4.23,3.17-5.98,4.4-10.39,3.78s-3.36-3.78-11.81-1.67
	c-8.46,2.11-7.56,6.48-15.94,5.88s-10.68-5.72-16.93-4.21c-5.45,1.31-11.14,3.21-12.51,3.68c-2.16-3.91-5.55-8.6-9.01-7.61
	c-2.97,0.85-4.85,2.35-5.97,3.61c-1,1.12-1.22,2.73-0.58,4.09c1.07,2.29,3.01,6.13,5.08,8.74c1.17,2.84,8.28,19.04,18.37,19.84
	c11.06,0.87,21.63,1.93,26.92,5.1c5.29,3.17,10.31,4.36,19.03,0c8.46-4.23,11.63-6.34,14.8-6.34S270.15,124.78,270.15,120.55z"/>
<path class="st4" d="M242.23,119.64c0,0,1.8,0.35,1.61,1.74c-0.19,1.39-1.3,4.53-1.33,5.14c-0.03,0.6-0.55,2.2,0,2.27
	c0.55,0.07,4.8,0.08,6.09,0.24c1.36,0.17,2.72,0.52,3.5,1.74s0.62,4.24-0.78,4.87c-1.56,0.7-1.56,0.7-4.48,0.17
	c-2.92-0.52-4.17-0.7-4.17-0.7l1.17,6.61c0,0,0.19,0.7-0.19,1.22c-0.39,0.52-1.15,1.03-1.74,1.04c-0.59,0-3.32-0.52-3.32-0.52
	s-0.97-0.17-1.36-1.04c-0.26-0.58-1.36-7.31-1.36-7.31l-5.64,0.17c0,0-0.78,0-1.17-0.35c-0.62-0.55-0.58-1.22-0.58-1.22v-2.4
	c0,0-0.19-0.91,0.78-1.43c0.53-0.28,1.56-0.17,1.56-0.17l4.87-0.35c0,0-0.19-6.78,1.17-8c1.36-1.22,1.36-1.04,2.34-1.22
	C240.14,119.99,242.23,119.64,242.23,119.64z"/>
<g>
	<path class="st1" d="M228.73,201.83c-0.01,0-0.01,0-0.01,0C228.72,201.84,228.73,201.84,228.73,201.83z"/>
	<path class="st1" d="M2.31,255.38l2.24,7.48c0,0,167.93-48.73,217.7-59.69c3.24-2.74,12.45-10.61,17.56-17.73
		c0.33-0.46,0.69-0.97,1.09-1.51"/>
	<path class="st1" d="M337.43,171.6c-4.93-3.7-24.69,2.24-35.61,4.08s-10.77-1.09-21.24-1.83c-2.1-0.15-14.52,3.03-33.04,8.21
		c-4.45,7.43-9.01,14.8-11.64,18.37c9-1.99,19.41-4.87,31.21-4.14c35.02,2.16,75.63,13.89,79.49,13.1
		C352.03,208.28,340.42,173.85,337.43,171.6z"/>
	<path class="st1" d="M235.9,200.43"/>
</g>
<path class="st1" d="M193.35,24.81c-1.77,0-29.57,11.24-29.57,11.24l-10.45-11.91l0.4-0.51c0,0,2.37-5.32,2.96-9.46
	c0.59-4.14,0-7.69-1.77-9.46c-1.77-1.77-3.5-2.37-7.1-2.37c-2.96,0-8.35,5.26-11.24,8.87c-2.37,2.96-62.7,65.65-64.47,69.2
	c-1.77,3.55,4.73,7.69,6.51,8.87c1.77,1.18,15.97-1.77,15.97-1.77l0.5-0.44l0,0c0,0,9.55,14.04,12.51,12.86s32.58-29.13,34.31-34.31
	c1.18-3.55,7.1-10.05,7.1-10.05s24.57-8.95,34.03-13.17C189.27,39.61,195.12,24.81,193.35,24.81z"/>
<path d="M144.58,66.13c0,0,5.82-2.15,5.38,0c-0.22,1.05-1.22,1.05-1.22,1.05l-4,1"/>
<path d="M157.56,75.99c0,0-3.67-0.31-5.64,0c-1.17,0.19-0.56,0.8-0.17,1.19c1,1,6.07,1,6.07,1"/>
<path d="M143.97,91.04c0,0,3.26-1.31,5.02-0.59s-0.72,1.46-1.25,1.72c-1.16,0.56-3.83,1.41-3.83,1.41"/>
<path d="M160.59,102.28c0,0-5.83,0.03-6.07,0c-0.78-0.11-0.56,1.5,0.22,1.89c1.15,0.57,6.08,0.08,6.08,0.08"/>
<path d="M143.46,118.32c0,0,6.28-2.15,7.28-1.15s0,1.15,0,1.15l-7.28,1.32"/>
<path d="M164.18,128.82c0,0-4.44-0.65-5.44,0.35s1,1,1,1l4.83-0.31"/>
<path d="M143.46,146.9c0,0,7.17-4.92,7.72-3.33s-2.44,2.6-2.44,2.6l-5.28,2.68"/>
<path d="M168.8,162.64c0,0-6.51-2.08-7.28-0.77c-0.78,1.3,7.67,2.93,7.67,2.93"/>
<path d="M143.46,179.22c0,0,8.28-3.04,8.28-1.04c0,1.72-8.28,3.39-8.28,3.39"/>
<path d="M171.72,197.48c0,0-6.94-2.73-6.96-1.01c-0.02,1.71,7.02,2.46,7.02,2.46"/>
<path d="M144.31,225.65c0,0,6.42-3.48,6.42-1.48s-6.35,3.05-6.35,3.05"/>
<path d="M172.48,243.52c0,0-8.22-3.7-9.48-2.02s9.48,4.7,9.48,4.7"/>
<path d="M144.29,260.01c0,0,6.45-3.84,7.45-1.84s-7.7,4.02-7.7,4.02"/>
<path d="M172.42,277.31c-1.68-0.14-6.68-1.86-6.68,0s6.06,2.37,6.06,2.37"/>
<path d="M139.38,287c0,0,5.36-4.83,6.36-2.83s-5.38,5.53-5.38,5.53"/>
<path d="M172.42,300.35c0,0-9.68-2.17-9.68-0.17s9.9,2.71,9.9,2.71"/>
<path d="M142.5,320.93c0,0,8.24-3.76,10.24-1.76s-10.24,5.22-10.24,5.22"/>
<path d="M189.81,253.79c0,0-2.93-6.74,0-5.18c2.93,1.57,1.26,3.75,1.26,3.75"/>
<path d="M194.86,234.14c0,0,1.88,4.03,2.88,3.03s-1.44-4.67-1.44-4.67"/>
<path d="M211.28,226.5c0,0-5.64-3.61-2.59-3.97c3.05-0.36,4.33,1.98,4.33,1.98"/>
<path d="M218.34,207.31c0,0,2.01,2.3,2.7,2.08c0.7-0.22-1.35-3.63-1.35-3.63"/>
<path d="M233.83,202.65c0,0-4.07-3.98-1.58-3.73c2.49,0.25,3.66,1.51,3.66,1.51"/>
<path d="M234.69,191.56c0,0,0.64,1.83,2.34,1.22c1.71-0.61,0-3.83,0-3.83"/>
<path d="M249.06,179.53c0,0-3.19-3.01-0.76-3.18c2.44-0.17,1.7,1.59,1.7,1.59"/>
<path d="M130.41,265.66c0,0,1.15-4.44,1.74-3.46c0.59,0.98-0.47,6.05-0.47,6.05"/>
<path d="M130.41,248.5c0,0-4.68-0.33-4.68,0.67c0,2,5.63,1.38,5.63,1.38"/>
<path d="M117.57,239.4c0,0,1.08-2.73,2.17-2.23c1.09,0.5-0.67,5.29-0.67,5.29"/>
<path d="M115.13,218.56c0,0-1.39,0.62-2.39,0.62s1.7-1.93,1.7-1.93"/>
<path d="M98.48,200.89c0,0,3.26-1.72,3.26-0.72s-2.53,2.08-2.53,2.08"/>
<path d="M94.64,184.43c0,0-3.32,0.74-1.9,0.74c1,0,2.25-0.18,2.25-0.18"/>
<path d="M84.61,174.84l1.13-1.66c1,0-0.61,2.65-0.61,2.65"/>
<path d="M80.45,161.94c0,0,0.14,0.23-0.71,0.23c-1,0,0.51-0.52,0.51-0.52"/>
<path d="M174.46,138.22c0,0-3.72-3.05-1.72-3.05s2.76,1.87,2.76,1.87"/>
<path d="M176.52,124.03c0,0,0.22,1.14,1.22,1.14s-0.74-1.58-0.74-1.58"/>
<path d="M188.32,124.38c0,0-0.58-0.21-0.58-1.21s0.58-0.33,0.58-0.33l0.62,0.95L188.32,124.38z"/>
<path d="M195.99,108.77c0,0,0.75,1.4,0.75,0.4s-0.33-0.84-0.33-0.84"/>
<path d="M205.77,108.65c0,0-2.03-2.47-1.03-2.47s1.67,1.93,1.67,1.93"/>
<path d="M210.41,95.82c0,0,0.56,1.78,1.78,1.48c0.55-0.13-0.65-2.18-0.65-2.18"/>
<path d="M223.19,95.3c0,0-1.45-3.13-0.45-2.13s1.57,1.68,1.57,1.68"/>
<path d="M229.41,85.3c0,0,1.33,1.88,1.33,0.88s-0.67-1.28-0.67-1.28"/>
<path d="M238.93,82.22c0,0-1.19-1.05-0.19-1.05c0,0,0.54,0.71,0.54,0.71"/>
<path d="M175.51,344.05c0,0-10.43-3-10.77-0.88c-0.34,2.12,10.96,3.81,10.96,3.81"/>
</svg>
